/* XPM */
static char *_0e245721e234064ef751ea6892d879aVcFkwgwsuc8NPd49[] = {
/* columns rows colors chars-per-pixel */
"31 31 142 2 ",
"   c None",
".  c #3F2723",
"X  c #3F2823",
"o  c #422C23",
"O  c #442C23",
"+  c #452C25",
"@  c #73651A",
"#  c #746719",
"$  c #786B19",
"%  c #7B6E18",
"&  c #6C4B3F",
"*  c #62543F",
"=  c #65553E",
"-  c #655D39",
";  c #665D3F",
":  c #675E3E",
">  c #6B583B",
",  c #6C583B",
"<  c #775A3D",
"1  c #776A3E",
"2  c #414141",
"3  c gray26",
"4  c #534E41",
"5  c #5D5344",
"6  c #6E4C41",
"7  c #7A5747",
"8  c #7D5D44",
"9  c #7D5E44",
"0  c #795548",
"q  c #795648",
"w  c #7A5648",
"e  c #7B5748",
"r  c #7F5948",
"t  c #827717",
"y  c #837817",
"u  c #827818",
"i  c #867918",
"p  c #867919",
"a  c #867D19",
"s  c #887A1A",
"d  c #8A7B1B",
"f  c #887E19",
"g  c #8A7E1B",
"h  c #907F1D",
"j  c #81722C",
"k  c #83683F",
"l  c #866E3C",
"z  c #856F3E",
"x  c #876F3E",
"c  c #8B7936",
"v  c #897339",
"b  c #88723A",
"n  c #897439",
"m  c #8C703F",
"M  c #937C35",
"N  c #805F43",
"B  c #815B49",
"V  c #875F49",
"C  c #8C6F41",
"Z  c #886049",
"A  c #896149",
"S  c #8A6149",
"D  c #956D48",
"F  c #9C7A47",
"G  c #9F714A",
"H  c #9C7A48",
"J  c #A37349",
"K  c #A0714A",
"L  c #A6764A",
"P  c #88801A",
"I  c #8A831B",
"U  c #8C851C",
"Y  c #8D851C",
"T  c #8E861C",
"R  c #8F891D",
"E  c #92851E",
"W  c #908A1E",
"Q  c #928C1E",
"!  c #948F1F",
"~  c #8F8B23",
"^  c #9B8522",
"/  c #938F24",
"(  c #92812E",
")  c #93872F",
"_  c #948A2E",
"`  c #959224",
"'  c #999621",
"]  c #9A9822",
"[  c #9B9922",
"{  c #9C9A23",
"}  c #9C9B24",
"|  c #9D9C24",
" . c #9E9D24",
".. c #9E9D25",
"X. c #999229",
"o. c #9B922A",
"O. c #999528",
"+. c #918431",
"@. c #928530",
"#. c #9B8E30",
"$. c #AF8E2A",
"%. c #AB952A",
"&. c #A59E28",
"*. c #A89E2A",
"=. c #AA9D2D",
"-. c #B5A22D",
";. c #C39833",
":. c #CC9D37",
">. c #E69C30",
",. c #E99E30",
"<. c #F4A227",
"1. c #FFA626",
"2. c #FFA726",
"3. c #F3A128",
"4. c #FFAA2D",
"5. c #FFAA2E",
"6. c #A88148",
"7. c #B98C49",
"8. c #C48C4B",
"9. c #D09640",
"0. c #D4974B",
"q. c #D4984C",
"w. c #DA9C4B",
"e. c #DBA14B",
"r. c #E4A347",
"t. c #E0A14C",
"y. c #E5A44C",
"u. c #E6A54D",
"i. c #EEA949",
"p. c #EDAA49",
"a. c #F3AE4C",
"s. c #F6B24A",
"d. c #F6B04D",
"f. c #F9B44A",
"g. c #FBB54B",
"h. c #FBB44D",
"j. c #FDB54D",
"k. c #FFB64C",
"l. c #FFB74C",
"z. c #FEB64D",
"x. c #FFB64D",
"c. c #FFB74D",
/* pixels */
"                                                              ",
"                                                              ",
"                        3 3 3 3 3 3 3                         ",
"                    3 3 3 3 3 3 3 3 3 3                       ",
"                  3 3 3 3 3 3 3 3 3 3 3 3                     ",
"                3 3 3 3 3 3 3 3 3 3 3 3 3 3 3                 ",
"              3 3 3 3 3 3 3 3 3 3 3 3 3 3 3 3 3               ",
"            3 3 3 3 3 3 3 3 3 3 3 3 3 3 3 3 3 3 3             ",
"            3 3 3 3 3 3 3 3 3 3 3 3 3 3 3 3 3 3 3             ",
"          3 3 3 3 3 3 3 3 3 3 3 3 3 3 ; 4 3 3 3 3 3           ",
"          3 3 3 3 3 3 3 3 3 3 3 - ( =. .*.; 3 3 3 3           ",
"          3 3 3 3 3 3 3 3 5 M g t Y  . . .&.1 3 3 3           ",
"          3 3 3 3 3 5 H e.c.^ t t R  . . . .X.l 3 3           ",
"          3 3 5 H e.c.c.c.g.p t t !  . . . .+.0 l 3           ",
"          3 F c.c.c.c.c.c.:.t t u }  . . . .n 0 m 3           ",
"        , 3 6.c.c.c.c.c.g.h t t P  . . . . .8 0 m 3 >         ",
"        <.= 6.c.c.c.p.p.$.t t t '  . .` ` ) 0 0 C * 3.        ",
"        2.,.7.c.c.r.+ O % t t Y  . ./ o o < 0 0 D >.2.        ",
"        2.5.c.c.c.9.X X $ t g  . . .~ X . 6 0 0 w.5.2.        ",
"          5.c.s.;.d @ # t a ]  . . . .j & 0 0 L c.5.          ",
"            $.p t t t t P {  . . . .+.7 0 0 A a.c.            ",
"            d t t t y W  . . . . .c 0 0 0 r y.c.c.            ",
"            E t u Y ]  . . . .X.k 0 0 0 B t.c.c.c.            ",
"            %.Q ]  . . . .O.b 0 0 0 0 A y.c.c.c.              ",
"              -. . . ._ l 0 0 0 0 0 K d.c.c.c.c.              ",
"                #.b 8 0 0 0 0 0 A 0.c.c.c.c.c.                ",
"                  N 0 0 0 0 V 8.h.c.c.c.c.c.                  ",
"                    K 0 G q.c.c.c.c.c.c.c.                    ",
"                        c.c.c.c.c.c.c.                        ",
"                                                              ",
"                                                              "
};
