/* XPM */
static char *_5c658956fef4e87bed55927197d75e8jO0RLQpKnQMiCLe8[] = {
/* columns rows colors chars-per-pixel */
"64 64 110 2 ",
"   c None",
".  c #69758A",
"X  c #69758B",
"o  c #6A758B",
"O  c #68768B",
"+  c #69768B",
"@  c #6A768B",
"#  c #6A748C",
"$  c #69768C",
"%  c #6A768C",
"&  c #6A778C",
"*  c #6B778C",
"=  c #6B778D",
"-  c #6B788D",
";  c #6A788E",
":  c #6C788E",
">  c #6D798F",
",  c #6D7A90",
"<  c #6E7A90",
"1  c #6E7B91",
"2  c #6F7C92",
"3  c #707C93",
"4  c #717E95",
"5  c #727F96",
"6  c #738097",
"7  c #748198",
"8  c #758299",
"9  c #75829A",
"0  c #76839B",
"q  c #76849B",
"w  c #77849C",
"e  c #78859D",
"r  c #78869E",
"t  c #79869F",
"y  c #79879F",
"u  c #7A88A0",
"i  c #7B88A1",
"p  c #7B8AA2",
"a  c #7B8AA3",
"s  c #7C89A2",
"d  c #7C89A3",
"f  c #7C8AA2",
"g  c #7C8AA3",
"h  c #7D8AA3",
"j  c #7D8BA4",
"k  c #7E8CA4",
"l  c #808DA6",
"z  c #808EA6",
"x  c #818EA6",
"c  c #818FA7",
"v  c #8491A9",
"b  c #8895AC",
"n  c #8C98AE",
"m  c #909CB1",
"M  c #919DB2",
"N  c #939EB3",
"B  c #949FB4",
"V  c #95A0B4",
"C  c #98A3B6",
"Z  c #98A3B7",
"A  c #9BA6B9",
"S  c #9CA7BA",
"D  c #9EA9BB",
"F  c #9BA8BD",
"G  c #9CA8BD",
"H  c #9FA8BC",
"J  c #9FAABC",
"K  c #9CA8BE",
"L  c #A0A9BA",
"P  c #A1ABBB",
"I  c #A0AABC",
"U  c #A0ABBC",
"Y  c #A1ABBC",
"T  c #A0ABBD",
"R  c #A1ABBD",
"E  c #A2ABBD",
"W  c #A2ACBD",
"Q  c #A3ACBE",
"!  c #A2ADBE",
"~  c #A3ADBE",
"^  c #A5B1C5",
"/  c #A5B1C6",
"(  c #A5B2C6",
")  c #A6B2C6",
"_  c #A7B2C6",
"`  c #A6B3C6",
"'  c #A6B2C7",
"]  c #A7B2C7",
"[  c #A6B3C7",
"{  c #A7B3C7",
"}  c #A8B4C7",
"|  c #ABB7CA",
" . c #ADB8CB",
".. c #B0BACC",
"X. c #B1BCCE",
"o. c #B5BFD0",
"O. c #B7C1D1",
"+. c #B9C3D3",
"@. c #BCC5D5",
"#. c #BEC7D5",
"$. c #BFC7D6",
"%. c #C0C8D6",
"&. c #C0C8D7",
"*. c #C0C9D7",
"=. c #C1C9D7",
"-. c #C1CAD8",
";. c #E2E6EC",
":. c #FCFDFD",
">. c #FEFEFE",
",. c white",
/* pixels */
"                                                                                                                                ",
"                                                                                                                                ",
"                                                                                                                                ",
"                                                                                                                                ",
"                                                                                                                                ",
"                                                                                                                                ",
"                                                                                                                                ",
"                                            [ [ [ [ [ [ [ [ [ [ [ [ [ [ [ [ [ [ [ [                                             ",
"                                          [ [ [ [ [ [ [ [ [ [ [ [ [ [ [ [ [ [ [ [ [ [                                           ",
"                                        [ [ [ [ [ [ [ [ [ [ [ [ [ [ [ [ [ [ [ [ [ [ [ [                                         ",
"                                        [ [ [ [ [ [ [ [ [ [ [ [ [ [ [ [ [ [ [ [ [ [ [ [                                         ",
"                                        [ [ [ [                                 [ [ [ [                                         ",
"                                      [ [ [ [ [                                 [ [ [ [ [                                       ",
"                                      [ [ [ [ [                                 [ [ [ [ [                                       ",
"                        #.&.-.-.-.-.-.-.-.-.-.-.-.-.-.-.-.-.-.-.-.-.-.#.[ [ [ [ [ [ [ [ [ [ [ [ [ [ [ [                         ",
"                      #.-.-.-.-.-.-.-.-.-.-.-.-.-.-.-.-.-.-.-.-.-.-.-.O.[ [ [ [ [ [ [ [ [ [ [ [ [ [ [ [ [                       ",
"                      &.-.-.-.-.;.:.:.:.:.:.:.:.;.-.-.-.-.-.-.-.-.-.&.| [ [ [ [ [ [ [ [ [ [ [ [ [ [ [ [ [                       ",
"                      -.-.-.-.-.:.:.:.:.:.:.:.:.:.-.-.-.-.-.-.-.-.&.X.[ [ [ [ [ [ [ [ [ [ [ [ [ [ [ [ [ [                       ",
"                      -.-.-.-.-.;.:.:.:.:.:.:.:.;.-.-.-.-.-.-.&.+. .[ [ [ [ [ [ [ [ [ [ [ [ [ [ [ [ [ [ [                       ",
"                      &.-.-.-.-.-.-.-.&...} [ [ | | | } [ [ [ [ [ [ [ [ [ [ [ [ } } [ [ [ [ [ [ [ [ [ [ [                       ",
"                      #.-.-.-.-.-.-.-.O.[ [ [ [ [ [ [ [ [ [ [ [ [ [ [ [ [ [ [ [ [ [ [ [ [ [ [ [ [ [ [ [ [                       ",
"                        #.&.-.-.-.-.-.o.[ [ [ [ [ [ [ [ [ [ [ [ [ [ [ [ [ [ [ [ [ [ [ [ [ [ [ [ [ [ [ [                         ",
"                              ~ ~ ~ ~ V g g g g g g g g g g g g g g g g g g g g g g g g g g q 1 &                               ",
"                              ~ ~ ~ ~ Z g g g g g g g g g g g g g g g g g g g g g g g g g 5 o o o                               ",
"                              ~ ~ ~ ~ S g g g g g g g g g g g g g g g g g g g g g g g g 8 o o o o                               ",
"                              ~ ~ ~ ~ I g g g g g g g g g g g g g g g g g g g g g g g g : o o o o                               ",
"                              ~ ~ ~ ~ ~ j g g g c K [ F c g g g g g g c K [ F c g g g g o o o o o                               ",
"                              I ~ ~ ~ ~ c g g g K [ [ [ K g g g g g g K [ [ [ K g g g t o o o o o                               ",
"                              I ~ ~ ~ ~ v g g g [ [ [ [ [ g g g g g g [ [ [ [ [ g g g t o o o o o                               ",
"                              L ~ ~ ~ ~ b g g g [ [ [ [ [ g g g g g g [ [ [ [ [ g g g 8 o o o o &                               ",
"                              K ~ ~ ~ ~ n g g g [ [ [ [ [ g g g g g g [ [ [ [ [ g g g 8 o o o o &                               ",
"                              D ~ ~ ~ ~ m g g g [ [ [ [ [ g g g g g g [ [ [ [ [ g g g 5 o o o o -                               ",
"                                ~ ~ ~ ~ B g g g [ [ [ [ [ g g g g g g [ [ [ [ [ g g g 3 o o o o                                 ",
"                                ~ ~ ~ ~ Z g g g [ [ [ [ [ g g g g g g [ [ [ [ [ g g g 1 o o o o                                 ",
"                                ~ ~ ~ ~ A g g g [ [ [ [ [ g g g g g g [ [ [ [ [ g g g : o o o o                                 ",
"                                ~ ~ ~ ~ K g g g [ [ [ [ [ g g g g g g [ [ [ [ [ g g g o o o o o                                 ",
"                                ~ ~ ~ ~ ~ g g g [ [ [ [ [ g g g g g g [ [ [ [ [ g g a o o o o o                                 ",
"                                ~ ~ ~ ~ ~ c g g [ [ [ [ [ g g g g g g [ [ [ [ [ g g t o o o o o                                 ",
"                                I ~ ~ ~ ~ c g g [ [ [ [ [ g g g g g g [ [ [ [ [ g g w o o o o &                                 ",
"                                I ~ ~ ~ I g g g [ [ [ [ [ g g g g g g [ [ [ [ [ g g 8 o o o o &                                 ",
"                                I ~ ~ ~ m g g g [ [ [ [ [ g g g g g g [ [ [ [ [ g g 6 o o o o -                                 ",
"                                L ~ ~ A k g g g [ [ [ [ [ g g g g g g [ [ [ [ [ g g 5 o o o o                                   ",
"                                  I m k g g g g [ [ [ [ [ g g g g g g [ [ [ [ [ g g 2 o o o o                                   ",
"                                  j g g g g g g [ [ [ [ [ g g g g g g [ [ [ [ [ g g 1 o o o o                                   ",
"                                  g g g g g g g [ [ [ [ [ g g g g g g [ [ [ [ [ g g - o o o o                                   ",
"                                  a g g g g g g [ [ [ [ [ g g g g g g [ [ [ [ [ g g o o o o o                                   ",
"                                  g g g g g g g F [ [ [ K g g g g g g F [ [ [ K g a o o o o o                                   ",
"                                  g g g g g g g c K [ F c g g g g g g c K [ F c g t o o o o o                                   ",
"                                  g g g g g g g g g g g g g g g g g g g g g g g g 8 o o o o &                                   ",
"                                  a g g g g g g g g g g g g g g g g g g g g g g t : o o o o o                                   ",
"                                    g g g g g g g g g g g g q 1 & o o o o o o o o o o o o o &                                   ",
"                                    g g g g g g g g g g g 5 o o o o o o o o o o o o o o o o                                     ",
"                                    g g g g g g g g g g q o o o o o o o o o o o o o o o o o                                     ",
"                                    g g g g g g g g g g 1 o o o o o o o o o o o o o o o o o                                     ",
"                                      a a g g g g g g g & o o o o o o o o o o o o o o o o                                       ",
"                                                                                                                                ",
"                                                                                                                                ",
"                                                                                                                                ",
"                                                                                                                                ",
"                                                                                                                                ",
"                                                                                                                                ",
"                                                                                                                                ",
"                                                                                                                                ",
"                                                                                                                                "
};
