/* XPM */
static char *_3ac8961f5cf4b20da721d7549b94d0bCKwS9LDNEV5qcWZD[] = {
/* columns rows colors chars-per-pixel */
"48 48 3 1 ",
"  c None",
". c #795548",
"X c #FF9800",
/* pixels */
"                                                ",
"                                                ",
"                                                ",
"                                                ",
"                                                ",
"                                                ",
"                                                ",
"                                                ",
"                                                ",
"                                                ",
"    XXXXXXXXXXXXXXXXXXX..XXXXXXXXXXXXXXXXXXX    ",
"    XXXXXXXXXXXXXXXXXXX..XXXXXXXXXXXXXXXXXXX    ",
"    XXXXXXXXXXXXXXXXXXX..XXXXXXXXXXXXXXXXXXX    ",
"    XXXXXXXXXXXXXXXXXXX..XXXXXXXXXXXXXXXXXXX    ",
"    XXXXXXXXXXXXXXXXXXX..XXXXXXXXXXXXXXXXXXX    ",
"    XXXXXXXXXXXXXXXXXXX..XXXXXXXXXXXXXXXXXXX    ",
"    XXXXXXXXXXXXXXXXXXX..XXXXXXXXXXXXXXXXXXX    ",
"    XXXXXXXXXXXXXXXXXXX..XXXXXXXXXXXXXXXXXXX    ",
"    ........................................    ",
"    ........................................    ",
"    XXXXXXXXX..XXXXXXXXXXXXXXXXXX..XXXXXXXXX    ",
"    XXXXXXXXX..XXXXXXXXXXXXXXXXXX..XXXXXXXXX    ",
"    XXXXXXXXX..XXXXXXXXXXXXXXXXXX..XXXXXXXXX    ",
"    XXXXXXXXX..XXXXXXXXXXXXXXXXXX..XXXXXXXXX    ",
"    XXXXXXXXX..XXXXXXXXXXXXXXXXXX..XXXXXXXXX    ",
"    XXXXXXXXX..XXXXXXXXXXXXXXXXXX..XXXXXXXXX    ",
"    XXXXXXXXX..XXXXXXXXXXXXXXXXXX..XXXXXXXXX    ",
"    XXXXXXXXX..XXXXXXXXXXXXXXXXXX..XXXXXXXXX    ",
"    ........................................    ",
"    ........................................    ",
"    XXXXXXXXXXXXXXXXXXX..XXXXXXXXXXXXXXXXXXX    ",
"    XXXXXXXXXXXXXXXXXXX..XXXXXXXXXXXXXXXXXXX    ",
"    XXXXXXXXXXXXXXXXXXX..XXXXXXXXXXXXXXXXXXX    ",
"    XXXXXXXXXXXXXXXXXXX..XXXXXXXXXXXXXXXXXXX    ",
"    XXXXXXXXXXXXXXXXXXX..XXXXXXXXXXXXXXXXXXX    ",
"    XXXXXXXXXXXXXXXXXXX..XXXXXXXXXXXXXXXXXXX    ",
"    XXXXXXXXXXXXXXXXXXX..XXXXXXXXXXXXXXXXXXX    ",
"    XXXXXXXXXXXXXXXXXXX..XXXXXXXXXXXXXXXXXXX    ",
"                                                ",
"                                                ",
"                                                ",
"                                                ",
"                                                ",
"                                                ",
"                                                ",
"                                                ",
"                                                ",
"                                                "
};
