/* XPM */
static char *_26c237bc5b44d438238642d782890f9NeBEtxAnHqQQTsrk[] = {
/* columns rows colors chars-per-pixel */
"30 30 42 1 ",
"  c None",
". c #7B2C11",
"X c #7D2C11",
"o c #7D2D11",
"O c #7C3015",
"+ c #7F3014",
"@ c #7F3114",
"# c #833112",
"$ c #843013",
"% c #843113",
"& c #853214",
"* c #853314",
"= c #863314",
"- c #863315",
"; c #873415",
": c #883515",
"> c #893515",
", c #893616",
"< c #8A3716",
"1 c #8B3817",
"2 c #8D3B19",
"3 c #8E3B19",
"4 c #903D1A",
"5 c #913E1B",
"6 c #943F1D",
"7 c #CF1827",
"8 c #CE1928",
"9 c #CF1928",
"0 c #94401D",
"q c #95431E",
"w c #96431F",
"e c #984520",
"r c #994620",
"t c #9C4722",
"y c #9C4822",
"u c #9F4A23",
"i c #9E4B23",
"p c #9F4B24",
"a c #0077D3",
"s c #0077D4",
"d c #0078D3",
"f c #0078D4",
/* pixels */
"                              ",
"                              ",
"                              ",
"                              ",
"                              ",
"                              ",
"             8                ",
"             8            sd  ",
"             8           ffa  ",
"         88  8   8       ff   ",
"         88  8   8      ffd   ",
"         88  8   8      ff    ",
"         88  8   8     dfa    ",
"             7   8     fa     ",
"                      ff      ",
"  ipppppppppppppppppppppppi   ",
"  iiiiiiiiiitiititiiiiiiiit   ",
"  rrrrrrrrrrrrrrrrrrrrrrrrr   ",
"  qqqqqqqqqqqqqqqqqqqqqqqq    ",
"   q66q6qqqqqq666qqq6666q6    ",
"   55555555555555555555555    ",
"    333333333333333333333     ",
"    ,1111111111111111111      ",
"     ,,,,,,,,,,,,,,,,,,       ",
"       ;;;;;;;;;;;;;;=        ",
"        ++=========+          ",
"         ..XXXXXXX..          ",
"         %%%%%%%%%%#          ",
"                              ",
"                              "
};
