/* XPM */
static char *_469573df76b428eac2d55c730914f26foCFw23Om8mv6OkU[] = {
/* columns rows colors chars-per-pixel */
"48 48 191 2 ",
"   c None",
".  c #3E2723",
"X  c #452D27",
"o  c #452E27",
"O  c #453022",
"+  c #463122",
"@  c #473125",
"#  c #483423",
"$  c #503626",
"%  c #523627",
"&  c #533727",
"*  c #6F601B",
"=  c #71611B",
"-  c #5C4F3D",
";  c #69483E",
":  c #655A3D",
">  c #6C613F",
",  c #706538",
"<  c #73663D",
"1  c #414141",
"2  c gray26",
"3  c #454442",
"4  c #464442",
"5  c #4F4941",
"6  c #514A40",
"7  c #514D40",
"8  c #5E5740",
"9  c #615544",
"0  c #7A5647",
"q  c #7A5747",
"w  c #7D5E43",
"e  c #7C5B45",
"r  c #7D5D44",
"t  c #7D5C45",
"y  c #7E5D44",
"u  c #795548",
"i  c #7A5548",
"p  c #7A5648",
"a  c #7B5648",
"s  c #7E6043",
"d  c #827717",
"f  c #827817",
"g  c #837817",
"h  c #837917",
"j  c #827718",
"k  c #837818",
"l  c #847A18",
"z  c #857C19",
"x  c #867C19",
"c  c #877F19",
"v  c #887A1A",
"b  c #897A1A",
"n  c #897D1A",
"m  c #8E7D1C",
"M  c #917F1D",
"N  c #8B6E27",
"B  c #827A23",
"V  c #827A24",
"C  c #837B24",
"Z  c #82673F",
"A  c #83683F",
"S  c #836A3E",
"D  c #816C3F",
"F  c #886F3C",
"G  c #8D6F3F",
"H  c #8B7637",
"J  c #887339",
"K  c #88723A",
"L  c #897538",
"P  c #8B713F",
"I  c #90723E",
"U  c #845D47",
"Y  c #805A48",
"T  c #825B48",
"R  c #855E49",
"E  c #865E48",
"W  c #865F49",
"Q  c #806341",
"!  c #806142",
"~  c #816540",
"^  c #8A6249",
"/  c #926748",
"(  c #9B6E4A",
")  c #9D6F4A",
"_  c #A07C47",
"`  c #A5754A",
"'  c #A7774A",
"]  c #A97748",
"[  c #AF7D49",
"{  c #AE7C4A",
"}  c #B17E4A",
"|  c #89801A",
" . c #8B841B",
".. c #8D851C",
"X. c #8D861C",
"o. c #8E871C",
"O. c #918B1E",
"+. c #918C1E",
"@. c #938D1F",
"#. c #938F1F",
"$. c #94901F",
"%. c #95911F",
"&. c #908226",
"*. c #908227",
"=. c #9B8422",
"-. c #9D8523",
";. c #93882F",
":. c #948A2D",
">. c #94892E",
",. c #968C2C",
"<. c #968E2C",
"1. c #949020",
"2. c #9B9123",
"3. c #989421",
"4. c #989521",
"5. c #989622",
"6. c #999722",
"7. c #9A9722",
"8. c #9A9822",
"9. c #9B9922",
"0. c #9C9B23",
"q. c #9D9B23",
"w. c #9B9827",
"e. c #9D9B24",
"r. c #9C9A25",
"t. c #9D9B25",
"y. c #9C9A26",
"u. c #9D9A26",
"i. c #9D9C24",
"p. c #9E9C24",
"a. c #9E9D24",
"s. c #908332",
"d. c #918430",
"f. c #928630",
"g. c #9F8D35",
"h. c #A58926",
"j. c #AA8C28",
"k. c #A39225",
"l. c #A79126",
"z. c #A69E27",
"x. c #A69F27",
"c. c #A99D2B",
"v. c #A99E2A",
"b. c #AA9B2F",
"n. c #B4912D",
"m. c #A59333",
"M. c #BF9631",
"N. c #B8A131",
"B. c #CD8C2E",
"V. c #D18E2D",
"C. c #C39833",
"Z. c #C89B35",
"A. c #CB9C37",
"S. c #E3982A",
"D. c #E69A2A",
"F. c #C5A634",
"G. c #FFA625",
"H. c #FFA725",
"J. c #FFA626",
"K. c #FFA726",
"L. c #B7834B",
"P. c #B08648",
"I. c #C68C40",
"U. c #C28B4B",
"Y. c #D2964B",
"T. c #D5974A",
"R. c #DFA34B",
"E. c #E1A740",
"W. c #ECAE45",
"Q. c #EDAE45",
"!. c #E0A44B",
"~. c #E2A24C",
"^. c #E4A34C",
"/. c #E5A44C",
"(. c #E6A54C",
"). c #E7A54C",
"_. c #EDAA4C",
"`. c #EFAB4C",
"'. c #F1AD4D",
"]. c #F4B04D",
"[. c #F7B14C",
"{. c #F8B44A",
"}. c #F9B44A",
"|. c #FDB54B",
" X c #FBB44D",
".X c #FDB54D",
"XX c #FCB64C",
"oX c #FFB64C",
"OX c #FFB74C",
"+X c #FFB64D",
"@X c #FFB74D",
/* pixels */
"                                                                                                ",
"                                                                                                ",
"                                                                                                ",
"                                        2 2 2 2 2 2 2 2 2                                       ",
"                                  2 2 2 2 2 2 2 2 2 2 2 2 2                                     ",
"                              2 2 2 2 2 2 2 2 2 2 2 2 2 2 2                                     ",
"                            2 2 2 2 2 2 2 2 2 2 2 2 2 2 2 2 2                                   ",
"                          2 2 2 2 2 2 2 2 2 2 2 2 2 2 2 2 2 2 2 2 2                             ",
"                        2 2 2 2 2 2 2 2 2 2 2 2 2 2 2 2 2 2 2 2 2 2 2 2                         ",
"                      2 2 2 2 2 2 2 2 2 2 2 2 2 2 2 2 2 2 2 2 2 2 2 2 2 2                       ",
"                    2 2 2 2 2 2 2 2 2 2 2 2 2 2 2 2 2 2 2 2 2 2 2 2 2 2 2 2                     ",
"                  2 2 2 2 2 2 2 2 2 2 2 2 2 2 2 2 2 2 2 2 2 2 2 2 2 2 2 2 2 2                   ",
"                  2 2 2 2 2 2 2 2 2 2 2 2 2 2 2 2 2 2 2 2 2 2 2 2 2 2 2 2 2 2                   ",
"                2 2 2 2 2 2 2 2 2 2 2 2 2 2 2 2 2 2 2 2 2 2 2 2 2 2 2 2 2 2 2 2                 ",
"                2 2 2 2 2 2 2 2 2 2 2 2 2 2 2 2 2 2 2 2 2 2 2 2 2 2 2 2 2 2 2 2                 ",
"                2 2 2 2 2 2 2 2 2 2 2 2 2 2 2 2 2 2 2 2 > g.v.m.4 2 2 2 2 2 2 2                 ",
"                2 2 2 2 2 2 2 2 2 2 2 2 2 2 2 2 2 , *.2.a.a.a.a.b.7 2 2 2 2 2 2                 ",
"              2 2 2 2 2 2 2 2 2 2 2 2 2 2 2 : *.n d d @.a.a.a.a.a.v.8 2 2 2 2 2 2               ",
"              2 2 2 2 2 2 2 2 2 2 2 2 9 _ !.h.d d d d 1.a.a.a.a.a.a.z.< 2 2 2 2 2               ",
"              2 2 2 2 2 2 2 2 2 9 _ R.@X@X@Xm d d d d 4.a.a.a.a.a.a.a.F D 2 2 2 2               ",
"              2 2 2 2 2 2 9 _ !.@X@X@X@X@XW.d d d d g e.a.a.a.a.a.a.a.Q 0 P 2 2 2               ",
"              2 2 2 9 _ !.@X@X@X@X@X@X@X@XC.d d d d | a.a.a.a.a.a.a.e.0 u u 2 2 2               ",
"              2 2 2 @X@X@X@X@X@X@X@X@X@X|.M d d d d O.a.a.a.a.a.a.a.:.u u u 2 2 2               ",
"              2 2 2 @X@X@X@X@X@X@X@X@X@XA.d d d d g 9.a.a.a.a.a.a.a.L u u u 2 2 2               ",
"              - 2 2 @X@X@X@X@X@X@X@X@XW.v d d d d  .a.a.a.a.a.a.a.e.y u u u 2 2 -               ",
"            G.D.6 2 @X@X@X@X@X@X@X@X@X=.d d d d d 4.a.a.a.a.a.a.a.s.u u u u 2 5 S.G.            ",
"            G.G.V.4 @X@X@X@X@XI.% % N d d d d d o.a.a.a.a.B # # C s u u u u 4 B.G.G.            ",
"            G.G.G.P.@X@X@X@X@X% . . + d d d d z 0.a.a.a.a.# . . @ u u u u u P.G.G.G.            ",
"            G.G.G.@X@X@X@X@X@X% . . + d d d g 4.a.a.a.a.a.# . . o u u u u ` @XG.G.G.            ",
"              G.G.@X@X@X@X}.M.= + + * d d g $.a.a.a.a.a.a.C # o ; u u u Y '.@XG.G.              ",
"                G.@X@X}.Z.m d d d d d d g $.a.a.a.a.a.a.a.e.A u u u u u U.@X@XG.                ",
"                  E.n.v d d d d d d d l 4.a.a.a.a.a.a.a.e.A u u u u u ( @X@X@X                  ",
"                  -.d d d d d d d d z 9.a.a.a.a.a.a.a.w.~ u u u u u ^ [.@X@X@X                  ",
"                  j.d d d d d d g @.a.a.a.a.a.a.a.a.,.y u u u u u Y /.@X@X@X@X                  ",
"                  l.d d d d j o.9.a.a.a.a.a.a.a.e.H u u u u u u Y ~.@X@X@X@X                    ",
"                    z d k o.4.a.a.a.a.a.a.a.a.;.w u u u u u u E /.@X@X@X@X@X                    ",
"                    k.@.0.a.a.a.a.a.a.a.a.:.Z u u u u u u u / `.@X@X@X@X@X                      ",
"                      z.a.a.a.a.a.a.a.f.Q u u u u u u u u [  X@X@X@X@X@X@X                      ",
"                      F.a.a.a.a.,.K e u u u u u u u u E Y.@X@X@X@X@X@X@X                        ",
"                        N.f.K y u u u u u u u u u u } [.@X@X@X@X@X@X@X@X                        ",
"                          G u u u u u u u u u u ) /.@X@X@X@X@X@X@X@X@X                          ",
"                            I u u u u u u u ` ^.@X@X@X@X@X@X@X@X@X@X                            ",
"                              [ U u u E L.`.@X@X@X@X@X@X@X@X@X@X                                ",
"                                  ] T.@X@X@X@X@X@X@X@X@X@X@X                                    ",
"                                        @X@X@X@X@X@X@X@X                                        ",
"                                                                                                ",
"                                                                                                ",
"                                                                                                "
};
