/* XPM */
static char *cb2c7ee9b0ec4ff6d68853546f2420c2nRE8RfbRVvk80Pml[] = {
/* columns rows colors chars-per-pixel */
"48 48 119 2 ",
"   c None",
".  c #474B50",
"X  c #4C5056",
"o  c #50545A",
"O  c #555B62",
"+  c #5B6269",
"@  c #60676E",
"#  c #616971",
"$  c #6C757E",
"%  c #727D86",
"&  c #1FBDBF",
"*  c #77838C",
"=  c #78838C",
"-  c #7D8B94",
";  c #1A8DCE",
":  c #1B93CC",
">  c #1C9CCA",
",  c #1D9BDB",
"<  c #1CA4C7",
"1  c #1CACC6",
"2  c #1CA0C8",
"3  c #1EB4C3",
"4  c #1FBAC1",
"5  c #1EACD6",
"6  c #1EA5D9",
"7  c #1EB4D5",
"8  c #1FBCD3",
"9  c #20BCDF",
"0  c #1EA4E6",
"q  c #1FABE4",
"w  c #1FB3E1",
"e  c #20B7E0",
"r  c #20B8E0",
"t  c #1FC0D1",
"y  c #20C5CF",
"u  c #21CACD",
"i  c #20C2D1",
"p  c #21C4DD",
"a  c #22CBDA",
"s  c #23D5D7",
"d  c #23D8D6",
"f  c #23D1D8",
"g  c #58CDE3",
"h  c #808D97",
"j  c #838E98",
"k  c #86949E",
"l  c #97A0A7",
"z  c #9CA4AD",
"x  c #9FA7B0",
"c  c #9FA8B1",
"v  c #A3ABB4",
"b  c #A6AFB8",
"n  c #A7B0B9",
"m  c #AAB3BD",
"M  c #B1B6BD",
"N  c #AEB6C1",
"B  c #AFB8C2",
"V  c #B0B9C4",
"C  c #B1B9C4",
"Z  c #B1BAC4",
"A  c #B1BAC5",
"S  c #B1BBC5",
"D  c #B2BBC5",
"F  c #B2BBC6",
"G  c #B2BCC6",
"H  c #B3BCC6",
"J  c #B3BCC7",
"K  c #B3BDC7",
"L  c #B4BDC7",
"P  c #B0B9C3",
"I  c #B4BDC8",
"U  c #B4BEC8",
"Y  c #B5BEC9",
"T  c #B5BFC9",
"R  c #B6BFCA",
"E  c #B6C0CB",
"W  c #B7C0CB",
"Q  c #B7C1CC",
"!  c #B8C1CC",
"~  c #B8C1CD",
"^  c #B8C2CD",
"/  c #B9C2CD",
"(  c #B9C3CE",
")  c #BAC3CE",
"_  c #BAC3CF",
"`  c #BAC4CF",
"'  c #BBC4CF",
"]  c #BBC4D0",
"[  c #BBC5D0",
"{  c #BCC5D1",
"}  c #BCC6D1",
"|  c #BDC6D2",
" . c #BDC7D2",
".. c #BDC7D3",
"X. c #BEC7D3",
"o. c #BEC8D3",
"O. c #BEC8D4",
"+. c #BFC8D4",
"@. c #BFC9D4",
"#. c #BFC9D5",
"$. c #C0C9D5",
"%. c #C0CAD5",
"&. c #C0CAD6",
"*. c #C1CAD6",
"=. c #C1CBD6",
"-. c #C1CBD7",
";. c #C2CBD7",
":. c #C2CCD7",
">. c #C1CBD9",
",. c #C2CCD8",
"<. c #C3CCD8",
"1. c #C3CDD8",
"2. c #C2CCD9",
"3. c #C3CDD9",
"4. c #F1F2F3",
"5. c #F2F2F3",
"6. c #F2F3F3",
"7. c #F2F3F4",
"8. c white",
/* pixels */
"                                                                                                ",
"                                                                                                ",
"                                                                                                ",
"                                                                                                ",
"                                                                                                ",
"                                                                                                ",
"                                                                                                ",
"          >.3.3.3.3.3.3.3.3.3.3.:.-.-.o.B B Q / / Q W I I I I J Z Z Z Z B B N N N m             ",
"          3.3.3.3.3.3.3.-.-.-.-.-.-.-.-.} b Z / Q W I I I I J J Z Z Z P B N N N m m m           ",
"          3.3.3.-.-.-.-.-.-.-.-.-.#.#.#.#.; , 0 0 0 0 0 0 0 0 q q q q q q q q q q m m           ",
"          -.-.= % % % % % % % % % % = o.} : , 0 0 0 q q q q q q q q q q q q q q q m m           ",
"          -.-.% % % % % % % % % g g % } } : , q q q q q q q q q w w w w w w w w w m n           ",
"          #.#.% % % % % % % % % g g % } } : 6 q q q q w w w w w w w w w w w w w w n n           ",
"          #.o.= % % % % % % % % % % = [ [ > 6 w w w w w w w w w e e e e e r r r r n n           ",
"          } } } } } } } } [ [ [ [ ` ` ` / > 5 w w w w e e e r r r r 9 9 9 9 9 9 9 n b           ",
"          } } } } [ [ [ [ ` ` ` / / / / / 2 5 w e e r r 9 9 9 9 9 9 9 9 9 9 9 9 9 n b           ",
"          [ [ * % % % % % % % % % % = / / 2 5 r r 9 9 9 9 9 9 9 9 p p p p p p p p b b           ",
"          ` ` % % % % % % % % % g g % W W < 7 9 9 9 9 9 9 p p p p p p p p p p p p b b           ",
"          / / % % % % % % % % % g g % I I < 7 9 9 p p p p p p p p p p p p p p p p b b           ",
"          / / = % % % % % % % % % % = I I 1 7 p p p p p p p p p a a a a a a a a a b b           ",
"          Q Q W W W W I I I I I I I I I I 1 8 p p p p p a a a a a a a a a a a a a b v           ",
"          W W I I I I I I I I I I I J J J 1 8 p p a a a a a a a a a a a a a a a a v v           ",
"          I I I I I I I I I J J J J J Z Z 3 8 a a a a a a a a a a a a a a a a a a v v           ",
"          I I I I L J J J J J Z Z Z Z Z Z 3 t a a a a a a a a a a a a f f f f f f v v           ",
"          L J J J J Z Z Z Z Z Z Z Z Z Z P 3 i a a a a a a a f f f f f f f f f f f v v           ",
"          J Z Z Z Z Z Z Z Z Z Z P P P B B 3 i a a a a f f f f f f f s s s s s s s v v           ",
"          Z Z Z Z Z Z Z P P P B B B N N N 3 y a a f f f f s s s s s s s s s s s s v v           ",
"          Z Z Z P P B B B B N N N N N N N 3 y f f f f s s s s s s s s s s s s s s v x           ",
"          P B B B B B N N N N N N N m m m 4 y f f s s s s s s s s s s s s s s s s x x           ",
"          B N N N N N N N N m m m m m m m 4 u s s s s s s s s s s s s s s s s s s x x           ",
"          N N N N N N m m m m m m m m m m & u s s s s s s s s s s s s s d d d d d x x           ",
"          N m m m m m m m m m m m m m m m & u s s s s s s s s d d d d d d d d d d x x           ",
"          m m m m m m m c x n m n n n n n & u s s s s s s d d d d d d d d d d d d x x           ",
"          m m m m m n M 7.5.M n n b n n n l v n n n b b b b b v v v v v v x x x x x x           ",
"          m m m n n z 5.8.8.5.z n b b b b l v n n n b b b b v v v v v v x x x x x x             ",
"          n n n n n z 5.8.8.5.z b b b b b . X o o o o o                                         ",
"          n n n n b b m 5.5.m b b b b b b O + @ @ @ @ @                                         ",
"          b b b b b b b z z b b b b b b v # $ $ $ $ $ $                                         ",
"          b b b b b b b b b b b v v v v v * h k k k k k k k k k k k                             ",
"          b b b b b b v v v v v v v v v v * h k k k k k k k k k k k                             ",
"          v b v v v v v v v v v v v v v z * h k k k k k k k k k k k                             ",
"            v v v v v v v v v v v v v z j - k k k k k k k k k k k k                             ",
"                                                                                                ",
"                                                                                                ",
"                                                                                                ",
"                                                                                                ",
"                                                                                                ",
"                                                                                                "
};
