/* XPM */
static char *_c4908429fa74b99f3bd0aedfff4d02dPhefkPgqmJw4fvrG[] = {
/* columns rows colors chars-per-pixel */
"48 48 95 2 ",
"   c None",
".  c #1A54A9",
"X  c #1954AA",
"o  c #1A54AA",
"O  c #1A54AC",
"+  c #1B56AD",
"@  c #1B56AF",
"#  c #1C58AC",
"$  c #1D59AC",
"%  c #1E58AC",
"&  c #1D59AE",
"*  c #1E59AE",
"=  c #1A56B0",
"-  c #1B58B0",
";  c #1B58B1",
":  c #1C59B3",
">  c #1B59B4",
",  c #1B5AB6",
"<  c #1B5AB7",
"1  c #1C59B4",
"2  c #1D59B4",
"3  c #1C59B5",
"4  c #1C5AB5",
"5  c #1C5AB6",
"6  c #1E5DB7",
"7  c #1B5AB8",
"8  c #1A5AB9",
"9  c #1B5AB9",
"0  c #185ABA",
"q  c #185ABB",
"w  c #195BBB",
"e  c #1A5ABA",
"r  c #1A5BBA",
"t  c #1A5BBB",
"y  c #1D5DB9",
"u  c #1D5EB9",
"i  c #185BBC",
"p  c #195BBC",
"a  c #1C5EBD",
"s  c #2263BC",
"d  c #2263BD",
"f  c #2568B8",
"g  c #2568B9",
"h  c #1F65C2",
"j  c #1F66C3",
"k  c #2971C2",
"l  c #2972C2",
"z  c #2B74C3",
"x  c #2B73C4",
"c  c #2D79C9",
"v  c #2E78C9",
"b  c #2F7CCF",
"n  c #2E7DD0",
"m  c #2E7DD3",
"M  c #2D7ED2",
"N  c #2F83D8",
"B  c #3181D4",
"V  c #3181D5",
"C  c #358BDA",
"Z  c #378EDA",
"A  c #378DDC",
"S  c #3992E0",
"D  c #3892E3",
"F  c #3992E3",
"G  c #3D9AE3",
"H  c #3D98E5",
"J  c #3D99E6",
"K  c #3C99E7",
"L  c #3D99E7",
"P  c #3E98E6",
"I  c #3C99E8",
"U  c #3D99E8",
"Y  c #3F9DE8",
"T  c #3F9CEA",
"R  c #409EEB",
"E  c #409DEC",
"W  c #41A3EB",
"Q  c #41A2ED",
"!  c #41A3ED",
"~  c #41A2EE",
"^  c #41A3EE",
"/  c #41A3EF",
"(  c #42A2EF",
")  c #42A3EF",
"_  c #41A4EC",
"`  c #42A4EC",
"'  c #42A4ED",
"]  c #42A4EE",
"[  c #41A2F0",
"{  c #41A3F0",
"}  c #42A2F0",
"|  c #42A3F0",
" . c #42A2F1",
".. c #42A3F1",
"X. c #42A3F2",
/* pixels */
"                                                                                                ",
"                                                                                                ",
"                                                                                                ",
"                                                                                                ",
"                                    | | | | | | | | | | | | |                                   ",
"                              | | | | | | | | | | | | | | | | | / |                             ",
"                          | | | | | | | | R P S C S P E / / / / / / / /                         ",
"                      | | | | | / A v g % o o @ @ @ o o % g v Z / ] ] ] ] /                     ",
"                  / / | | | P x % @ - : 5 5 5 5 5 5 5 5 5 : - @ % z G ] ] ] ]                   ",
"                  | | / T k o - 5 5 5 5 5 5 5 5 5 5 5 5 5 5 5 5 5 - o k T ] ] ]                 ",
"                  / / / % @ 5 5 5 5 5 5 5 5 5 5 5 5 5 5 , , , , , , , = % W ] ]                 ",
"                        : 5 5 5 5 5 5 5 5 5 , , , , , , , , , , 7 7 , , ,                       ",
"                        5 5 5 5 5 , , , , , , , , , , , , , , , , , , , ,                       ",
"                        , , , , , , , , , , , , , , , , , , , , , , , , ,                       ",
"                        , , , , , , , , , , , , , , , , , , , , , , , , ,                       ",
"                        , , , , S | | | | | | | | | | | | | | | S , , , ,                       ",
"                        , , , , | | | | | | | | | | | | | | | | | 7 7 7 7                       ",
"                        , , , , | | | | | | | | | | | | | | | | | 7 7 7 7                       ",
"                        , , , , | | | | | | | | | | | | | | | | | 7 7 7 7                       ",
"                        , , , , | | P s 5 5 5 , 7 7 7 7 7 h U / / 7 7 7 7                       ",
"                        7 7 7 7 | | V 5 5 5 5 , 7 7 7 7 7 7 N / / 7 7 7 7                       ",
"                        7 7 7 7 / / P s 5 5 5 , 7 7 7 7 7 h U / / 7 7 7 7                       ",
"                        7 7 7 7 / / / / / / / / / / / / / / / / / 7 7 7 7                       ",
"                        7 7 7 7 / / / / / / / / / / / / / / / / / 7 7 7 7                       ",
"                        7 7 7 7 / / P s 5 5 5 , 7 7 7 7 7 h U / | 7 7 7 7                       ",
"                        7 7 7 7 / / V 5 5 5 5 , 7 7 7 7 7 7 N / | 7 7 7 7                       ",
"                        7 7 7 7 / / P s 5 5 5 , 7 7 7 7 7 h P ] ] 7 7 7 7                       ",
"                        7 7 7 7 / / / / / / ] ] ] ] ] ] ] ] ] ] ] 7 7 7 7                       ",
"                        7 7 7 7 ] ] ] ] ] ] ] ] ] ] ] ] ] ] ] ] ] 7 7 7 7                       ",
"                        7 7 7 7 ] ] ] ] ] ] ] ] ] ] ] ] ] ] ] ] ] 7 7 7 7                       ",
"                        7 7 7 7 ] ] ] ] ] ] ] ] ] ] ] ] ] ] ] ] ] 7 7 7 7                       ",
"                        7 7 7 7 ] ] ] ] ] ] ] ] ] ] ] ] ] ] ] ] ] 7 7 7 7                       ",
"                        7 7 7 7 ] ] ] ] ] ] ] ] ] ] ] n u n ] ] ] 7 7 7 7                       ",
"                        7 7 7 7 ] ] ] ] ] ] ] ] ] ] ] 6 , a ] ] ] 7 7 7 7                       ",
"                        7 7 7 7 ] ] ] ] ] ] ] ] ] ] ] b u n ] ] ] 7 7 7 7                       ",
"                        7 7 7 7 ] ] ] ] ] ] ] ] ] ] ] ] ] ] ] ] ] 7 7 7 7                       ",
"                        7 7 7 7 ] ] ] ] ] ] ] ] ] ] ] ] ] ] ] ] ] 7 7 7 7                       ",
"                        7 7 7 7 ] ] ] ] ] ] ] ] ] ] ] ] ] ] ] ] ] p 7 7 7                       ",
"                        p p p p ] ] ] ] ] ] ] ] ] ] ] ] ] ] ] ] ] p p 7 7                       ",
"                        p p p p ] ] ] ] ] ] ] ] ] ] ] ] ] ] ] ] ] p p p 7                       ",
"                        7 7 7 7 ] ] ] ] ] ] ] ] ] ] ] ] ` ] ] ] ] 7 7 7 p                       ",
"                        7 7 7 7 ] ] ] ] ] ] ] ] ] ] ` ` ` ] ] ] ] p p p p                       ",
"                        p p 7 7 ] ] ] ] ` ` ` ` ] ] ` ` ` ] ] ] ] p p p p                       ",
"                        7 7 7 7 ] ] ] ] ` ` ` ` ] ] ` ` ` ` ] ] ] p p p p                       ",
"                          i p p ] ] ] ] ] ] ] ] ] ] ` ` ] ] ] ] ] p p p                         ",
"                                                                                                ",
"                                                                                                ",
"                                                                                                "
};
