/* XPM */
static char *a70d043f0bc844a4b80afa663beff9098Er0GYWKeWpzwyHp[] = {
/* columns rows colors chars-per-pixel */
"48 48 175 2 ",
"   c None",
".  c #44269F",
"X  c #45269F",
"o  c #44279F",
"O  c #45279F",
"+  c #4426A0",
"@  c #4526A0",
"#  c #4427A0",
"$  c #4527A0",
"%  c #4627A0",
"&  c #4528A1",
"*  c #4628A0",
"=  c #4629A1",
"-  c #472AA1",
";  c #4729A2",
":  c #482AA1",
">  c #482AA2",
",  c #492BA2",
"<  c #492CA3",
"1  c #4A2CA3",
"2  c #4B2CA3",
"3  c #4B2DA3",
"4  c #4C2EA4",
"5  c #4D2EA4",
"6  c #4D2FA5",
"7  c #4E2FA4",
"8  c #4D30A5",
"9  c #4F30A5",
"0  c #4F30A6",
"q  c #4F31A6",
"w  c #5032A6",
"e  c #5133A7",
"r  c #5536A8",
"t  c #5436A9",
"y  c #5537A9",
"u  c #5637AA",
"i  c #5638A9",
"p  c #5738AA",
"a  c #5739AB",
"s  c #583AAA",
"d  c #583AAB",
"f  c #593AAB",
"g  c #5B3CAC",
"h  c #5B3DAC",
"j  c #5D40AE",
"k  c #5E40AE",
"l  c #5F40AF",
"z  c #5F41AF",
"x  c #6042AF",
"c  c #6042B0",
"v  c #6142B0",
"b  c #6143B0",
"n  c #6242B0",
"m  c #6243B0",
"M  c #6343B0",
"N  c #6443B2",
"B  c #6344B0",
"V  c #6344B1",
"C  c #6446B2",
"Z  c #6546B2",
"A  c #6647B3",
"S  c #6648B2",
"D  c #6748B3",
"F  c #684AB4",
"G  c #694AB4",
"H  c #6A4AB4",
"J  c #6B4CB5",
"K  c #6B4DB6",
"L  c #6C4CB6",
"P  c #6C4DB6",
"I  c #6F50B8",
"U  c #7051B8",
"Y  c #7151B8",
"T  c #7151B9",
"R  c #7052B9",
"E  c #7152B9",
"W  c #7253BA",
"Q  c #7354BA",
"!  c #7456BA",
"~  c #7556BB",
"^  c #7757BB",
"/  c #7657BC",
"(  c #7757BC",
")  c #7758BC",
"_  c #7858BC",
"`  c #7959BC",
"'  c #7A5ABE",
"]  c #7A5BBE",
"[  c #7B5BBE",
"{  c #7B5CBE",
"}  c #7C5DBE",
"|  c #7C5CBF",
" . c #7C5DBF",
".. c #7D5EBF",
"X. c #7E5EBF",
"o. c #7D5EC0",
"O. c #7E5EC0",
"+. c #7E5FC0",
"@. c #7F60C0",
"#. c #8060C1",
"$. c #8061C1",
"%. c #8162C2",
"&. c #8262C2",
"*. c #8262C3",
"=. c #8364C3",
"-. c #8464C3",
";. c #8464C4",
":. c #8565C4",
">. c #8566C4",
",. c #8566C5",
"<. c #8666C4",
"1. c #8767C5",
"2. c #8768C5",
"3. c #8768C6",
"4. c #8969C6",
"5. c #896AC6",
"6. c #8A6AC7",
"7. c #8B6BC7",
"8. c #8C6CC8",
"9. c #8C6DC8",
"0. c #8D6DC8",
"q. c #8D6EC9",
"w. c #8E6EC9",
"e. c #8F6EC9",
"r. c #8E6FC9",
"t. c #8E7BC5",
"y. c #9070C9",
"u. c #9070CA",
"i. c #9170CA",
"p. c #9171CA",
"a. c #9171CB",
"s. c #9272CB",
"d. c #9373CB",
"f. c #9272CC",
"g. c #9374CC",
"h. c #9374CD",
"j. c #9474CC",
"k. c #9574CC",
"l. c #9475CC",
"z. c #9575CC",
"x. c #9474CD",
"c. c #9475CD",
"v. c #9575CD",
"b. c #9576CD",
"n. c #9677CE",
"m. c #9581C9",
"M. c #9C8BCC",
"N. c #9D8BCC",
"B. c #B09CD9",
"V. c #B7A7DB",
"C. c #BEB0DF",
"Z. c #BEB1DF",
"A. c #C1AEE1",
"S. c #C3B0E2",
"D. c #C4B1E2",
"F. c #C3B8E1",
"G. c #C5BAE2",
"H. c #C7BBE2",
"J. c #CBBBE6",
"K. c #D0C5E8",
"L. c #D3C6EA",
"P. c #D4C8EA",
"I. c #D7CCEA",
"U. c #D7CCEC",
"Y. c #DCD3ED",
"T. c #DDD5EE",
"R. c #DED5EE",
"E. c #E0D7EF",
"W. c #E4DBF2",
"Q. c #E5DBF2",
"!. c #EAE4F5",
"~. c #EBE4F5",
"^. c #EBE5F5",
"/. c #ECE6F6",
"(. c #EDE7F6",
/* pixels */
"                                                                                                ",
"                                                                                                ",
"                                                                                                ",
"                                                                                                ",
"                                                                                                ",
"                                                  $ $ . .                                       ",
"                                          . $ $ $ $ $ $ $ $ $ .                                 ",
"                                      . $ $ $ $ $ $ $ $ $ $ $ $ $ $                             ",
"                                  $ $ $ $ $ $ $ $ $ $ $ $ $ $ $ $ $ $ $                         ",
"                                $ $ $ $ $ $ $ 8 H X.-.#.E h * $ $ $ e $ .                       ",
"                            $ . $ $ $ $ $ C a.v.v.v.v.v.v.v.0.k $ $ * h $ .                     ",
"                          . $ $ $ $ .   v.v.v.v.v.v.v.v.v.v.v.v./ * $ y h $                     ",
"                        $ $ $ $ $     v.v.v.v.v.v.g.a.v.v.v.v.v.v.' $ $ E : $                   ",
"                      . $ $ $ .     v.v.v.v.a.~ s : $ 3 S A./.J.v.v.v $ a I $                   ",
"                    . $ $ .       v.v.v.v.) 5 $ $ $ $ $ $ T./.^.v.v.4.$ $ ;.: $                 ",
"                    . $ $       v.v.v.a.k $ $ $ $ $ $ $ $ t.T.S.v.v.v.y $ / k .                 ",
"                  $ $ .       v.v.v.=.8 $ $ H.H.$ $ $ $ $ $ $ 4.v.v.v.x $ J E $                 ",
"                $ $ .       v.v.v.' * $ * J P.K.5 $ $ $ $ $ $ 0.v.v.v.v $ C #..                 ",
"                $ $       v.v.K.E * $ * X.v.v.v.;.* $ $ $ $ a v.v.v.v.s $ H 2..                 ",
"              . $ $     v.v.v.J $ $ : #.v.v.v.v.v.8 $ $ $ $ o.v.v.v.f.: $ E 4.$       .         ",
"              $ .       v.v.I $ $ : ;.v.v.v.v.v.a.: $ $ $ k v.v.v.v.' $ $ #.;.        $         ",
"            . $       v.v.X.$ $ * o.v.v.v.v.D./.V.$ $ $ e a.v.v.v.v.y $ : f.{         $         ",
"            $       a.v.0.3 $ $ E v.v.v.v.v.W./.^.* $ 8 0.v.v.v.v.o.$ $ V v./       .           ",
"          . .       0.v.v $ $ V v.v.v.v.v.4.m.Y.M.$ 5 4.v.v.v.v.a.8 $ * ;.v.        $           ",
"          $         v.;.$ $ 8 a.v.v.v.v.4.5 $ $ $ e 4.v.v.v.v.v.V $ $ v v.0.      $ .           ",
"          $       ~ v.V $ $ o.v.v.v.v.0.8 $ $ $ h a.v.v.v.v.v.E $ $ 3 0.v.a.      $             ",
"        .         X.a.: $ a v.v.v.v.U.I.* $ $ v v.v.v.v.v.v.X.* $ * o.v.g.      $ .             ",
"        $         ;.#.$ $ ' v.v.v.v.C.F.* $ : a.v.v.v.v.v.=.: $ $ E v.v.      $ $ .             ",
"        .       . 4.E $ : a.v.v.v.o.$ $ $ $ 8 v.v.D./.J.#.: $ $ L v.v.v.    . $ $               ",
"        $       $ 2.H $ s v.v.v.v.a $ $ $ $ * ;.v.W./.^.3 $ * Q v.v.v.      . $                 ",
"                . #.C $ v v.v.v.0.$ $ $ $ $ $ 5 ~ B.E.M.$ * ' v.v.v.      . $ .                 ",
"                $ Q L $ v v.v.v.4.* $ $ $ $ $ $ $ $ $ $ 8 ;.v.v.v.      $ $ $                   ",
"                . k / $ y v.v.v.v.C.* $ $ $ $ $ $ $ $ k a.v.v.v.      $ $ .                     ",
"                $ * ;.$ $ 4.v.v.v.4.8 $ $ $ $ $ $ 5 ) v.v.v.v.      $ $ $ .                     ",
"                  $ I y $ V v.v.v.v.a.S 3 $ : s ~ a.v.v.v.v.    . $ $ $ .                       ",
"                  . : E $ $ ' v.v.v.v.v.v.a.g.v.v.v.v.v.v.    . $ $ $ .                         ",
"                    $ h y $ * ~ v.v.v.v.v.v.v.v.v.v.v.v.  . $ $ $ $ $                           ",
"                    $ $ h * $ $ k 4.v.v.v.v.v.v.v.a.N . $ $ $ $ . .                             ",
"                      . $ 8 $ $ $ * h E @.=.X.H 5 $ $ $ $ $ $ $                                 ",
"                        $ $ $ $ $ $ $ $ $ $ $ $ $ $ $ $ $ $ $                                   ",
"                            $ $ $ $ $ $ $ $ $ $ $ $ $ $ $                                       ",
"                                $ $ $ $ $ $ $ $ $ . $                                           ",
"                                      $ $ $ $                                                   ",
"                                                                                                ",
"                                                                                                ",
"                                                                                                ",
"                                                                                                ",
"                                                                                                "
};
