/* XPM */
static char *_f05f93b93ab411ebdc497985a0f1f6fCvMvNHxXWQbUyjfC[] = {
/* columns rows colors chars-per-pixel */
"60 60 2 1 ",
"  c #B7810C",
". c #875F0A",
/* pixels */
"                            ..                              ",
"                            ..                              ",
"                            ..                              ",
"                            ..                              ",
"                            ..                              ",
"                            ..                              ",
"                            ..                              ",
"                            ..                              ",
"                            ..                              ",
"                            ..                              ",
"                            ..                              ",
"                            ..                              ",
"                            ..                              ",
"                            ..                              ",
"                            ..                              ",
"                            ..                              ",
"                            ..                              ",
"                            ..                              ",
"                            ..                              ",
"                            ..                              ",
"............................................................",
"............................................................",
"............................................................",
"                                                            ",
"                                                            ",
"                                                            ",
"                                                            ",
"                                                            ",
"                                                            ",
"                                                            ",
"                                                            ",
"                                                            ",
"                                                            ",
"                                                            ",
"                                                            ",
"                                                            ",
"                                                            ",
"............................................................",
"............................................................",
"............................................................",
"                            ..                              ",
"                            ..                              ",
"                            ..                              ",
"                            ..                              ",
"                            ..                              ",
"                            ..                              ",
"                            ..                              ",
"                            ..                              ",
"                            ..                              ",
"                            ..                              ",
"                            ..                              ",
"                            ..                              ",
"                            ..                              ",
"                            ..                              ",
"                            ..                              ",
"                            ..                              ",
"                            ..                              ",
"                            ..                              ",
"                            ..                              ",
"                            ..                              "
};
