/* XPM */
static char *_cf80470e4654d1c85ea600b96eb9e38kCbJuFUhrHzBMqpx[] = {
/* columns rows colors chars-per-pixel */
"60 60 2 1 ",
"  c #B66106",
". c #6B3A05",
/* pixels */
"                 ..                    ..                   ",
"                 ..                    ..                   ",
"                 ..                    ..                   ",
"                 ..                    ..                   ",
"                 ..                    ..                   ",
"                 ..                    ..                   ",
"                 ..                    ..                   ",
"                 ..                    ..                   ",
"                 ..                    ..                   ",
"                 ..                    ..                   ",
"                 ..                    ..                   ",
"                 ..                    ..                   ",
"                 ..                    ..                   ",
"                 ..                    ..                   ",
"                 ..                    ..                   ",
"                 ..                    ..                   ",
"                 ..                    ..                   ",
"                 ..                    ..                   ",
"............................................................",
"............................................................",
"                                                            ",
"                                                            ",
"                                                            ",
"                                                            ",
"                                                            ",
"                                                            ",
"                                                            ",
"                                                            ",
"                                                            ",
"                                                            ",
"                                                            ",
"                                                            ",
"                                                            ",
"                                                            ",
"                                                            ",
"                                                            ",
"                                                            ",
"                                                            ",
"............................................................",
"............................................................",
"           ..                                ..             ",
"           ..                                ..             ",
"           ..                                ..             ",
"           ..                                ..             ",
"           ..                                ..             ",
"           ..                                ..             ",
"           ..                                ..             ",
"           ..                                ..             ",
"           ..                                ..             ",
"           ..                                ..             ",
"           ..                                ..             ",
"           ..                                ..             ",
"           ..                                ..             ",
"           ..                                ..             ",
"           ..                                ..             ",
"           ..                                ..             ",
"           ..                                ..             ",
"           ..                                ..             ",
"           ..                                ..             ",
"           ..                                ..             "
};
