/* XPM */
static char *_ea568b9543e4282b3646c199e37af33mD7xsIomFqm4b6t8[] = {
/* columns rows colors chars-per-pixel */
"60 60 166 2 ",
"   c black",
".  c #EEC23F",
"X  c #E7C545",
"o  c #ECC342",
"O  c #EAC847",
"+  c #E7C748",
"@  c #ECC748",
"#  c #EDCC4E",
"$  c #ECCD4E",
"%  c #EDCD4E",
"&  c #ECCD4F",
"*  c #EDCD4F",
"=  c #ECCC4E",
"-  c #EECD4E",
";  c #EECD4F",
":  c #EDCE4E",
">  c #ECCE4F",
",  c #EDCE4F",
"<  c #EECE4F",
"1  c #EFCE4F",
"2  c #ECCC4D",
"3  c #ECCA4C",
"4  c #EBCE50",
"5  c #EDCD50",
"6  c #ECCE50",
"7  c #EDCE50",
"8  c #ECCF50",
"9  c #ECCF51",
"0  c #EDCF51",
"q  c #EECE50",
"w  c #EFCE50",
"e  c #EECF50",
"r  c #EFCF50",
"t  c #EECF51",
"y  c #EFCF51",
"u  c #ECCF52",
"i  c #EDCF52",
"p  c #EDCE50",
"a  c #F0CF51",
"s  c #F0CF51",
"d  c #ECD052",
"f  c #EDD052",
"g  c #EDD053",
"h  c #EDD153",
"j  c #EED052",
"k  c #EED153",
"l  c #EFD153",
"z  c #EDD154",
"x  c #EDD254",
"c  c #EED254",
"v  c #EFD254",
"b  c #EFD354",
"n  c #EED255",
"m  c #EED355",
"M  c #EFD355",
"N  c #EED356",
"B  c #EFD356",
"V  c #EED455",
"C  c #EED456",
"Z  c #EED457",
"A  c #EFD457",
"S  c #EFD557",
"D  c #EED254",
"F  c #EED558",
"G  c #EFD558",
"H  c #EFD559",
"J  c #EED658",
"K  c #EFD659",
"L  c #EFD759",
"P  c #EED65A",
"I  c #EFD65A",
"U  c #EED75A",
"Y  c #EFD659",
"T  c #EFD85A",
"R  c #EFD85B",
"E  c #EED95B",
"W  c #EFD95B",
"Q  c #EFD85C",
"!  c #EFD95C",
"~  c #EFDA5C",
"^  c #EFDB5C",
"/  c #EFDA5E",
"(  c #EFD95D",
")  c #F0D052",
"_  c #F1D152",
"`  c #F1D253",
"'  c #F2D456",
"]  c #F3D456",
"[  c #F0D355",
"{  c #F0D559",
"}  c #F0D659",
"|  c #F0D65A",
" . c #F0D75A",
".. c #F0D75B",
"X. c #F0D65A",
"o. c #F0D85A",
"O. c #F1D85B",
"+. c #F3D85A",
"@. c #F0D95C",
"#. c #F1D95C",
"$. c #F0D85D",
"%. c #F0D95D",
"&. c #F1D95D",
"*. c #F0DA5C",
"=. c #F0DB5D",
"-. c #F0D95E",
";. c #F1DA5E",
":. c #F1DB5E",
">. c #F0DA5F",
",. c #F0DB5F",
"<. c #F1DB5F",
"1. c #F2DB5E",
"2. c #F3DB5F",
"3. c #F0DC5E",
"4. c #F1DC5F",
"5. c #F0DD5F",
"6. c #F1DD5F",
"7. c #F2DC5E",
"8. c #F3DC5E",
"9. c #F2DC5F",
"0. c #F1DA5D",
"q. c #EFDD60",
"w. c #EFDE62",
"e. c #EEDF63",
"r. c #EFDF63",
"t. c #EFDE64",
"y. c #EFDF64",
"u. c #EEDF65",
"i. c #EFDF65",
"p. c #EFDF65",
"a. c #F0DC60",
"s. c #F1DC60",
"d. c #F0DC61",
"f. c #F1DC61",
"g. c #F0DD61",
"h. c #F1DD61",
"j. c #F2DC60",
"k. c #F3DC60",
"l. c #F3DC61",
"z. c #F2DD61",
"x. c #F3DD61",
"c. c #F1DE60",
"v. c #F1DE61",
"b. c #F0DF61",
"n. c #F0DD62",
"m. c #F1DD62",
"M. c #F1DD63",
"N. c #F2DD62",
"B. c #F3DD62",
"V. c #F1DE62",
"C. c #F0DE63",
"Z. c #F1DE63",
"A. c #F0DF63",
"S. c #F2DE62",
"D. c #F0DE64",
"F. c #F1DE64",
"G. c #F0DF64",
"H. c #F1DF64",
"J. c #F0DF65",
"K. c #F1DF65",
"L. c #F2DF64",
"P. c #F0DE63",
"I. c #EEE064",
"U. c #EFE064",
"Y. c #EEE065",
"T. c #EFE064",
/* pixels */
"                                                                                                                        ",
"                                                                                                                        ",
"                                                                                                                        ",
"    o o o o o o o m.i.i.i.i.i.i.i.i.i.i.i.i.m.o o $.t o w.o 4.@ o o o o o o S i.i.i.i.i.i.i.i.i.i.i.i.m.o o { $.o T     ",
"    m.O o o o o O G.i.i.G.i.i.m.m.i.i.i.i.i.t . 3 G.o o i.o O m.3 o o o o O m.i.i.G.i.i.m.m.i.i.i.i.i.H o o G.3 o m.    ",
"    S G.$.g g Q i.i.m.G.G.G.m.o O m.i.G.G.G.O . t G.o o m.o . t m.$.x t H G.i.G.m.G.G.G.o O m.i.G.G.G.g o O G.o o $.    ",
"    o 3 Q G.i.i.i.H o O g m.G.o o $ G.G.G.G.# o S G.o o 4.{ o o o H m.i.i.i.Q O o # m.G.3 o O G.G.G.G.H o # i.o o x     ",
"    o o o x i.i.i.$.o . o O m.H o o m.i.t # m.O m.G.o o 2 i.x o o o 3 I.i.i.m.O o o o $.$.o o $.i.H 2 m.O $.i.2 o o     ",
"    $.$ O $.i.i.i.i.m.x o o # i.o o H G.o o G.G.i.i.H o o i.i.$.t O S I.i.i.i.i.{ o o o m.3 o g I.3 o $.G.i.i.m.o o     ",
"    i.i.G.i.G.$.g g m.i.Q o o m.O o H m.o o G.i.i.i.G.g o i.i.i.i.G.i.i.m.x g m.i.G.o o T t o g i.o o H i.i.i.i.{ o     ",
"    i.i.i.m.O o o o o O w.S o 4.O o m.H o o G.i.i.i.i.i.G.i.i.i.i.i.G.3 o o o o O w.$.o g # o m.m.o o $.i.i.i.i.i.G.    ",
"    i.i.i.{ o o o o o o o m.O +.o 3 w.3 . # G.m.G.i.i.i.i.i.i.i.i.i.m.o o o o o o o $.2 t 2 o i.t . o G.m.m.i.i.i.i.    ",
"    i.i.i.i.m.m.G.G.m.T @ 2 2 +.o 4.t o O m.$.o g i.i.i.i.i.i.i.i.i.i.m.m.G.G.m.$.2 O ] t o H H o o Q m.O O i.i.i.i.    ",
"    i.i.i.i.G.x o o o @ t # t # ] 2 o 3 4.$.o . x i.i.i.i.i.i.i.i.i.i.G.S 3 o o o # ` # 2 a t o o Q 4.o . 2 i.i.i.i.    ",
"    i.i.i.G.O o o o 2 t t # 3 2 O t Q m.# o o O m.i.i.i.i.i.i.i.i.i.G.$ o o o 3 # t # 2 O O # T m.x o o o m.i.i.i.i.    ",
"    i.i.i.t o o x m.m.t O # O ` O o o o o o o m.i.i.i.i.i.i.i.i.i.i.{ o o 3 m.G.x O O O # O o o o o o o $.i.i.i.i.i.    ",
"    i.i.m.O o { G.{ o o +.O # ` $ 4.x $ t $.i.i.i.i.i.i.i.i.i.i.i.i.O o t G.$.o o H O ` t O 4.S 4 t { G.i.i.i.i.i.i.    ",
"    i.i.i.x H i.{ o o Q 2 2 3 [ O o H m.i.i.$.m.i.i.i.i.i.i.i.i.i.i.H x G.a.o o H x o ] 2 2 o S w.i.i.m.m.i.i.i.i.i.    ",
"    i.i.i.i.i.G.o o g $.o S 2 o m.o o o o o o o m.i.i.i.G.G.i.i.i.i.i.i.G.3 o 2 m.o O H o 4.3 o o o o o o 4.i.i.i.G.    ",
"    i.G.i.i.i.$.o o m.t o Q S o x m.2 o o o o x i.i.i.i.i.[ H G.G.i.i.i.m.o o T H . g Q o # m.t o o o o # G.i.i.i.i.    ",
"    H i.i.i.i.H o o I.# o { m.o o x G.a.{ $.m.G.$.H $.I.I.o o t i.i.i.i.w.o o Q x o 2 i.o o # G.m.$.+.m.G.m.H T G.I.    ",
"    o m.i.G.m.m.o O I.# o # i.t o o O T i.i.i.G.O . o O m.] o o Q i.i.m.m.o o m.x o o G.H o . o S G.i.i.i.O . o O $.    ",
"    o $.i.# o m.t { i.H o o m.G.$ o o o H i.i.i.a.O . . O m.O o g i.x o $.H t i.m.o o H i.x o o o 3 i.i.i.m.O o . o     ",
"    . x i.O o Q G.i.i.m.O o t I.i.$.g 4 m.i.G.G.i.I.{ o o $.[ . 2 i.O . g G.i.i.i.3 o 3 G.i.m.x $ $.i.i.G.i.I.$.O o     ",
"    . H w.o o $.i.i.i.i.m.O x i.i.i.i.i.m.x O o @ x m.$.o g { . # i.O . g i.i.i.i.G.# # i.i.i.i.i.G.{ O o O g w.m.o     ",
"    o G.$.o o m.i.i.i.i.i.G.i.i.i.i.i.i.# o o o o o @ m.t o { . H m.o o $.i.i.i.i.i.i.i.i.i.i.i.i.S o o o o o o Q H     ",
"    2 i.o o # G.H $.G.i.i.i.i.i.i.i.G.G.g 2 x { S # o @ 4.o t @ i.2 o o G.$.S G.i.i.i.i.i.i.i.G.G.H # g { S t o o $.    ",
"    m.o o 3 m.x o X i.i.i.i.i.i.i.i.i.G.i.I.m.$.S +.$.3 # O O $.# o o m.$.o o G.i.i.i.i.i.i.i.i.G.i.I.U.$.H H 4.t O     ",
"    o o S m.x o . S i.i.i.i.i.i.i.i.i.i.G.t o o o o o O # 3 [ O o t m.$.o . # i.i.i.i.i.i.i.i.i.i.i.{ o o o o o O t     ",
"    t # o o o o g m.i.i.i.i.i.i.i.i.i.i.3 o o $ m.m.+.# 2 O a t # o o o o 3 m.i.i.i.i.i.i.i.i.i.I.g o o O m.G.$.t #     ",
"    t @ o o O H i.i.i.i.i.i.i.i.i.i.i.$.o o H G.H o o [ + t t g 3 o o O x G.i.i.i.i.i.i.i.i.i.i.m.o o t G.$.@ o t 3     ",
"    t m.G.i.i.i.i.i.i.i.i.i.i.i.i.i.i.Q O { G.S o o $.O { O O 3 $.G.G.i.i.i.i.i.i.i.i.i.i.i.i.i.m.O g G.$.o o H # #     ",
"    o o 2 t t 3 3 m.i.i.i.i.i.i.i.i.i.i.m.i.m.o o H x o w.o $.o o 3 t t 3 3 T i.i.i.i.i.i.i.i.i.i.G.G.G.o o g $.o H     ",
"    $.o o o o o O m.i.i.G.i.i.i.i.i.i.i.i.i.x . o G.o o i.o 4 a.O o o o o o Q i.i.G.i.i.i.i.i.i.i.i.i.Q o o G.2 o w.    ",
"    $.m.x O O x m.i.i.G.G.G.m.o t i.i.G.G.G.O . # G.o o m.o o S m.{ 3 O g m.i.i.G.G.G.i.O O m.i.G.G.G.x . o G.o o $.    ",
"    o g m.i.i.i.i.$.X O $.G.G.o o t G.G.G.G.2 o x G.o o m.` . o 3 m.i.i.i.i.m.O X { G.G.O o O G.G.G.G.x o 2 i.o o S     ",
"    o o o H i.i.i.H o . o # G.g o o m.i.H { $.O Q G.o o g i.# o o o g i.i.i.Q o . . O m.H o o m.G.Q x m.O S i.@ o 3     ",
"    g o o x i.i.i.i.a.2 o o g m.o o Q G.o o m.m.i.i.g o o i.m.S O o # i.i.i.i.m.t o o 3 G.o o x i.# o $.m.G.i.$.o o     ",
"    i.G.m.i.i.m.{ H G.i.S o o m.O o H m.o o G.i.i.i.G.2 o i.i.i.G.m.G.i.m.$.H m.i.$.o o Q # o g i.o o H i.i.i.i.g o     ",
"    i.i.i.G.# o o o o g G.t o 4.O o m.Q o o G.i.i.i.i.G.$.i.i.i.i.i.G.g o o o o 3 G.T o g # o $.m.o o $.i.i.i.i.G.m.    ",
"    i.i.i.{ o o o o o o 3 m.O $.o @ i.2 . O G.G.G.i.i.i.i.i.i.i.i.i.m.o o o o o o o m.@ t # o w.x . o m.G.G.i.i.i.i.    ",
"    i.i.i.G.m.m.G.G.m.x o # 3 +.o $.H o o m.G.O x i.i.i.i.i.i.i.i.i.i.m.m.G.G.m.H o O [ t o S m.o o H G.O 3 i.i.i.i.    ",
"    i.i.i.i.i.$.# O O t { O t ` t x o o Q m.O . g i.i.i.i.i.i.i.i.i.i.i.a.t O O # +.2 t 2 2 { o o S m.3 . O i.i.i.i.    ",
"    i.i.i.G.t o . o o @ 3 3 # 2 O O g m.H o o o m.i.i.i.i.i.i.i.i.i.i.H o o o o @ 3 O # 3 # O # m.T @ o o $.i.i.i.i.    ",
"    i.i.i.x o o 2 $.G.H # # O t # 3 3 o o o o { i.i.i.i.i.i.i.i.i.i.$.o o @ +.G.$.t 2 O # # 3 3 o o o o x i.i.i.i.i.    ",
"    i.i.G.O o g G.$.o o x 2 # # g S 2 O 3 g w.i.i.i.i.i.i.i.i.i.i.i.O o 3 m.m.3 o t t t # # ] # 3 3 t Q i.i.i.i.i.i.    ",
"    i.i.i.# x G.a.o o H t 3 3 ] o 2 m.G.i.i.G.G.i.i.i.i.i.i.i.i.i.i.x # m.m.O o g H o ] # O @ $.i.i.i.i.G.i.i.i.i.i.    ",
"    i.i.i.i.i.G.o o # m.o x 3 o $.o o O O O o O m.i.i.i.G.G.i.i.i.i.i.i.i.t o @ G.o O H o m.o o o O O o o m.i.i.i.G.    ",
"    i.G.i.i.i.m.o o m.x o T x o $.$.O o o o o 3 G.i.i.i.i.$.m.i.G.i.i.i.G.o o H $.o g Q o g m.O o o o o O m.i.i.i.i.    ",
"    $.i.i.i.i.H o o G.# o { m.o o $.m.H # t $.G.m.a.m.I.I.o o H i.i.i.i.w.o o Q x o # w.o o H G.$.t 4 H G.G.a.m.I.I.    ",
"    O G.i.i.G.4.o o I.# o a i.O o o t m.i.i.i.G.O o o g m.t o o a.i.i.m.m.o o m.x o o i.x o o 3 Q G.i.i.i.3 o o # m.    ",
"    o $.i.x O m.2 g i.x o o m.m.O o o o Q i.i.i.S O . . 2 m.o o x i.Q O m.g 3 G.$.o o $.G.# o o o g i.i.i.$.O . . o     ",
"    . x G.O o Q G.G.i.m.O o x I.G.{ O O m.i.i.i.i.w.g o o $.` . # i.3 . g G.G.i.i.O o 3 i.i.{ $ O H i.i.i.i.w.H o o     ",
"    . x G.o o Q i.i.i.i.$.O # i.i.i.i.i.G.$.3 O # $.I.H o S { . 2 i.O . t i.i.i.i.m.O O G.i.i.i.i.i.m.t O 3 { i.$.o     ",
"    . m.$.o o w.i.i.i.i.i.G.i.i.i.i.i.i.g o o o o o 3 m.O o { . H G.o . { i.i.i.i.i.i.G.i.i.i.i.i.$.o o o o o O m.x     ",
"    o I.3 o 3 G.m.m.G.i.i.i.i.i.i.i.G.G.3 o @ 3 3 o o 2 4.o x o w.t . o m.m.a.G.i.i.i.i.i.i.i.G.G.g o @ 3 3 o o o 4.    ",
"    m.g o o m.$.o O i.i.i.i.i.i.i.i.i.G.i.U.U.w.Q 4.{ o [ O O H H o o $.m.O O G.i.i.i.i.i.i.i.i.G.i.U.I.w.Q Q $.3 #     ",
"    3 o # 4.T o . t i.i.i.i.i.i.i.i.i.i.i.{ @ o o o o # O 3 t t o 3 4.4.o . 3 i.i.i.i.i.i.i.i.i.i.i.$.3 o o o o # 2     ",
"                                                                                                                        ",
"                                                                                                                        "
};
