/* XPM */
static char *_5730af19c454910c0a1eb1ca61daf84WSdqFe0qaoqH86xE[] = {
/* columns rows colors chars-per-pixel */
"48 48 60 1 ",
"  c None",
". c #772E13",
"X c #702B14",
"o c #7D2D11",
"O c #7C2F13",
"+ c #782E14",
"@ c #7D2F14",
"# c #833011",
"$ c #803113",
"% c #813113",
"& c #823012",
"* c #833012",
"= c #853213",
"- c #843114",
"; c #853214",
": c #853314",
"> c #863214",
", c #863314",
"< c #863315",
"1 c #863415",
"2 c #873415",
"3 c #883515",
"4 c #883616",
"5 c #893616",
"6 c #8B3817",
"7 c #8B3918",
"8 c #8C3918",
"9 c #8D3A19",
"0 c #8E3B19",
"q c #8F3C19",
"w c #903C19",
"e c #903C1A",
"r c #913E1B",
"t c #923F1B",
"y c #CE1828",
"u c #CF1828",
"i c #CF1928",
"p c #92401C",
"a c #93401C",
"s c #94411D",
"d c #95411E",
"f c #97431F",
"g c #98451F",
"h c #984420",
"j c #984520",
"k c #9A4520",
"l c #9A4521",
"z c #9A4621",
"x c #9B4721",
"c c #9B4821",
"v c #9C4822",
"b c #9D4922",
"n c #9E4A22",
"m c #9E4A23",
"M c #9F4B24",
"N c #9F4C25",
"B c #0077D3",
"V c #0077D4",
"C c #0078D3",
"Z c #0078D4",
/* pixels */
"                                                ",
"                                                ",
"                                                ",
"                                                ",
"                                                ",
"                                                ",
"                                                ",
"                                                ",
"                                                ",
"                     ii                         ",
"                     ii                         ",
"                     ii                   CV    ",
"                     ii                  CZZC   ",
"                     ii                 CZZZC   ",
"               ii    ii    ii           BZZZ    ",
"               ii    ii    ii          VZZZZ    ",
"               ii    ii    ii          VZZB     ",
"               ii    ii    ii         CZZZB     ",
"               ii    ii    ii         CZZC      ",
"               ii    ii    ii        BZZZ       ",
"               ii    ii    ii        BZZZ       ",
"               ii    ii    ii       VZZC        ",
"                                    VZZ         ",
"                                   VZZB         ",
"   NNNNNNNNNNNNNNNNNNNNNNNNNNNNNNNNNNNNNNNM     ",
"   mmmmmmmmmmmmmmmmmmmmmmmmmmmmmmmmmmmmmmmm     ",
"   vmmmmmmmvmmmmmmmmmmmmmmmmmmmmmmmvmmmmmmz     ",
"   zzzzzzzzzzzzzzzzzzzzzzzzzzzzzzzzzzzzzzzz     ",
"   gzzzzjzjzzzzzzzzzjzjzzzzzzzzzjzjzzzzzzzz     ",
"    ffffffffffffffffffffffffffffffffffffff      ",
"    ffffffffffffffffffffffffffffffffffffff      ",
"    aaaaaaaaaaaaaaaaaaaaaaaaaaaaaaaaaaaaar      ",
"     rrrrrrrrrrrrrrrrrrrrrrrrrrrrrrrrrrrr       ",
"     qrrrrrrrrrrrrrrrrrrrrrrrrrrrrrrrrrrr       ",
"      8888888888888888888888888888888888        ",
"       88888888888888888888888888888887         ",
"        666666666666666666666666666666          ",
"         55555555555555555555555555555          ",
"          25555555555555555555555552            ",
"           22222222222222222222222;             ",
"             ;;;;;;;;;;;;;;;;;;;;               ",
"              X.o*;========;*@+X                ",
"              oooooooooooooooooo                ",
"              ******************                ",
"               ;;;;;;;;;;;;;;;;                 ",
"                                                ",
"                                                ",
"                                                "
};
